<?xml version="1.0" encoding="utf-8"?>
<!-- Svg Vector Icons : http://www.onlinewebfonts.com/icon -->
<!DOCTYPE svg PUBLIC "-//W3C//DTD SVG 1.1//EN" "http://www.w3.org/Graphics/SVG/1.1/DTD/svg11.dtd">
<svg version="1.1" xmlns="http://www.w3.org/2000/svg" xmlns:xlink="http://www.w3.org/1999/xlink" x="0px" y="0px" viewBox="0 0 1000 1000" enable-background="new 0 0 1000 1000" xml:space="preserve">
<metadata> Svg Vector Icons : http://www.onlinewebfonts.com/icon </metadata>
<g><g transform="translate(0.000000,511.000000) scale(0.100000,-0.100000)"><path d="M2060,4030v-980h-980H100v-326.7v-326.7h980h980v-980v-980h-980H100V110v-326.7h980h980v-980v-980h-980H100v-326.7V-2830h980h980v-980v-980h326.7h326.7v980v980h980h980v-980v-980H5000h326.7v980v980h980h980v-980v-980h326.7H7940v980v980h980h980v326.7v326.7h-980h-980v980v980h980h980V110v326.7h-980h-980v980v980h980h980v326.7V3050h-980h-980v980v980h-326.7h-326.7v-980v-980h-980h-980v980v980H5000h-326.7v-980v-980h-980h-980v980v980h-326.7H2060V4030z M4673.3,1416.7v-980h-980h-980v980v980h980h980V1416.7z M7286.7,1416.7v-980h-980h-980v980v980h980h980V1416.7z M4673.3-1196.7v-980h-980h-980v980v980h980h980V-1196.7z M7286.7-1196.7v-980h-980h-980v980v980h980h980V-1196.7z"/></g></g>
</svg>