<?xml version="1.0" encoding="utf-8"?>
<!-- Svg Vector Icons : http://www.onlinewebfonts.com/icon -->
<!DOCTYPE svg PUBLIC "-//W3C//DTD SVG 1.1//EN" "http://www.w3.org/Graphics/SVG/1.1/DTD/svg11.dtd">
<svg version="1.1" xmlns="http://www.w3.org/2000/svg" xmlns:xlink="http://www.w3.org/1999/xlink" x="0px" y="0px" viewBox="0 0 1000 1000" enable-background="new 0 0 1000 1000" xml:space="preserve">
<metadata> Svg Vector Icons : http://www.onlinewebfonts.com/icon </metadata>
<g><g transform="translate(0.000000,511.000000) scale(0.100000,-0.100000)"><path d="M7940,4030v-326.7h326.7h326.7V4030v326.7h-326.7H7940V4030z"/><path d="M6633.3,1416.7V-216.7h1633.3H9900v1633.3V3050H8266.7H6633.3V1416.7z M9246.7,1416.7v-980h-980h-980v980v980h980h980V1416.7z"/><path d="M7940,1416.7V1090h326.7h326.7v326.7v326.7h-326.7H7940V1416.7z"/><path d="M7940-1196.7v-326.7h326.7h326.7v326.7V-870h-326.7H7940V-1196.7z"/><path d="M7940-2503.3V-2830h326.7h326.7v326.7v326.7h-326.7H7940V-2503.3z"/><path d="M100-3810v-326.7h326.7h326.7v326.7v326.7H426.7H100V-3810z"/><path d="M1406.7-3810v-326.7h326.7H2060v326.7v326.7h-326.7h-326.7V-3810z"/><path d="M2713.3-3810v-326.7H3040h326.7v326.7v326.7H3040h-326.7V-3810z"/><path d="M4020-3810v-326.7h326.7h326.7v326.7v326.7h-326.7H4020V-3810z"/><path d="M5326.7-3810v-326.7h326.7H5980v326.7v326.7h-326.7h-326.7V-3810z"/><path d="M6633.3-3810v-326.7H6960h326.7v326.7v326.7H6960h-326.7V-3810z"/><path d="M7940-3810v-326.7h326.7h326.7v326.7v326.7h-326.7H7940V-3810z"/></g></g>
</svg>